{
  "accessors": [
    {
      "bufferView": 0,
      "byteOffset": 0,
      "componentType": 5125,
      "normalized": false,
      "count": 72,
      "type": "SCALAR",
      "max": [
        15
      ],
      "min": [
        0
      ]
    },
    {
      "bufferView": 1,
      "byteOffset": 0,
      "componentType": 5126,
      "normalized": false,
      "count": 16,
      "type": "VEC3",
      "max": [
        8.27999,
        2.95999,
        1.736
      ],
      "min": [
        1e-05,
        -0.23998999999999998,
        1.376
      ]
    },
    {
      "bufferView": 2,
      "byteOffset": 0,
      "componentType": 5125,
      "normalized": false,
      "count": 1728,
      "type": "SCALAR",
      "max": [
        303
      ],
      "min": [
        0
      ]
    },
    {
      "bufferView": 3,
      "byteOffset": 0,
      "componentType": 5126,
      "normalized": false,
      "count": 304,
      "type": "VEC3",
      "max": [
        8.27999,
        2.80499,
        1.136
      ],
      "min": [
        1e-05,
        -0.08499000000000001,
        0.936
      ]
    },
    {
      "bufferView": 4,
      "byteOffset": 0,
      "componentType": 5125,
      "normalized": false,
      "count": 2448,
      "type": "SCALAR",
      "max": [
        543
      ],
      "min": [
        0
      ]
    },
    {
      "bufferView": 5,
      "byteOffset": 0,
      "componentType": 5126,
      "normalized": false,
      "count": 544,
      "type": "VEC3",
      "max": [
        8.06099,
        2.44599,
        0.936
      ],
      "min": [
        0.15901,
        0.27401000000000003,
        -0.0001
      ]
    },
    {
      "bufferView": 6,
      "byteOffset": 0,
      "componentType": 5125,
      "normalized": false,
      "count": 1644,
      "type": "SCALAR",
      "max": [
        279
      ],
      "min": [
        0
      ]
    },
    {
      "bufferView": 7,
      "byteOffset": 0,
      "componentType": 5126,
      "normalized": false,
      "count": 280,
      "type": "VEC3",
      "max": [
        7.83999,
        2.61499,
        0.18
      ],
      "min": [
        0.11001,
        0.10500999999999999,
        0.0
      ]
    },
    {
      "bufferView": 8,
      "byteOffset": 0,
      "componentType": 5125,
      "normalized": false,
      "count": 168,
      "type": "SCALAR",
      "max": [
        35
      ],
      "min": [
        0
      ]
    },
    {
      "bufferView": 9,
      "byteOffset": 0,
      "componentType": 5126,
      "normalized": false,
      "count": 36,
      "type": "VEC3",
      "max": [
        8.119990000000001,
        2.48499,
        0.02
      ],
      "min": [
        0.13501000000000002,
        0.23501000000000002,
        -0.12
      ]
    },
    {
      "bufferView": 10,
      "byteOffset": 0,
      "componentType": 5125,
      "normalized": false,
      "count": 1296,
      "type": "SCALAR",
      "max": [
        287
      ],
      "min": [
        0
      ]
    },
    {
      "bufferView": 11,
      "byteOffset": 0,
      "componentType": 5126,
      "normalized": false,
      "count": 288,
      "type": "VEC3",
      "max": [
        8.13599,
        2.80599,
        1.376
      ],
      "min": [
        0.14401,
        -0.08599,
        1.011
      ]
    },
    {
      "bufferView": 12,
      "byteOffset": 0,
      "componentType": 5125,
      "normalized": false,
      "count": 36,
      "type": "SCALAR",
      "max": [
        7
      ],
      "min": [
        0
      ]
    },
    {
      "bufferView": 13,
      "byteOffset": 0,
      "componentType": 5126,
      "normalized": false,
      "count": 8,
      "type": "VEC3",
      "max": [
        8.469990000000001,
        2.90999,
        0.01
      ],
      "min": [
        -0.18999,
        1.30501,
        -0.5
      ]
    }
  ],
  "asset": {
    "generator": "pygltflib@v1.16.1",
    "version": "2.0"
  },
  "bufferViews": [
    {
      "buffer": 0,
      "byteOffset": 0,
      "byteLength": 288,
      "target": 34963
    },
    {
      "buffer": 0,
      "byteOffset": 288,
      "byteLength": 192,
      "target": 34962
    },
    {
      "buffer": 0,
      "byteOffset": 480,
      "byteLength": 6912,
      "target": 34963
    },
    {
      "buffer": 0,
      "byteOffset": 7392,
      "byteLength": 3648,
      "target": 34962
    },
    {
      "buffer": 0,
      "byteOffset": 11040,
      "byteLength": 9792,
      "target": 34963
    },
    {
      "buffer": 0,
      "byteOffset": 20832,
      "byteLength": 6528,
      "target": 34962
    },
    {
      "buffer": 0,
      "byteOffset": 27360,
      "byteLength": 6576,
      "target": 34963
    },
    {
      "buffer": 0,
      "byteOffset": 33936,
      "byteLength": 3360,
      "target": 34962
    },
    {
      "buffer": 0,
      "byteOffset": 37296,
      "byteLength": 672,
      "target": 34963
    },
    {
      "buffer": 0,
      "byteOffset": 37968,
      "byteLength": 432,
      "target": 34962
    },
    {
      "buffer": 0,
      "byteOffset": 38400,
      "byteLength": 5184,
      "target": 34963
    },
    {
      "buffer": 0,
      "byteOffset": 43584,
      "byteLength": 3456,
      "target": 34962
    },
    {
      "buffer": 0,
      "byteOffset": 47040,
      "byteLength": 144,
      "target": 34963
    },
    {
      "buffer": 0,
      "byteOffset": 47184,
      "byteLength": 96,
      "target": 34962
    }
  ],
  "buffers": [
    {
      "uri": "data:application/octet-stream;base64,",
      "byteLength": 47280
    }
  ],
  "materials": [
    {
      "pbrMetallicRoughness": {
        "baseColorFactor": [
          0.2,
          0.2,
          0.2,
          1.0
        ],
        "metallicFactor": 0.5,
        "roughnessFactor": 0.5
      },
      "emissiveFactor": [
        0.0,
        0.0,
        0.0
      ],
      "alphaMode": "OPAQUE",
      "alphaCutoff": 0.5,
      "doubleSided": false,
      "name": "substrate"
    },
    {
      "pbrMetallicRoughness": {
        "baseColorFactor": [
          0.4,
          0.4,
          0.4,
          1.0
        ],
        "metallicFactor": 0.5,
        "roughnessFactor": 0.5
      },
      "emissiveFactor": [
        0.0,
        0.0,
        0.0
      ],
      "alphaMode": "OPAQUE",
      "alphaCutoff": 0.5,
      "doubleSided": false,
      "name": "nwell"
    },
    {
      "pbrMetallicRoughness": {
        "baseColorFactor": [
          0.9,
          0.9,
          0.9,
          1.0
        ],
        "metallicFactor": 0.5,
        "roughnessFactor": 0.5
      },
      "emissiveFactor": [
        0.0,
        0.0,
        0.0
      ],
      "alphaMode": "OPAQUE",
      "alphaCutoff": 0.5,
      "doubleSided": false,
      "name": "diff"
    },
    {
      "pbrMetallicRoughness": {
        "baseColorFactor": [
          0.75,
          0.35,
          0.46,
          1.0
        ],
        "metallicFactor": 0.5,
        "roughnessFactor": 0.5
      },
      "emissiveFactor": [
        0.0,
        0.0,
        0.0
      ],
      "alphaMode": "OPAQUE",
      "alphaCutoff": 0.5,
      "doubleSided": false,
      "name": "poly"
    },
    {
      "pbrMetallicRoughness": {
        "baseColorFactor": [
          0.2,
          0.2,
          0.2,
          1.0
        ],
        "metallicFactor": 0.5,
        "roughnessFactor": 0.5
      },
      "emissiveFactor": [
        0.0,
        0.0,
        0.0
      ],
      "alphaMode": "OPAQUE",
      "alphaCutoff": 0.5,
      "doubleSided": false,
      "name": "licon"
    },
    {
      "pbrMetallicRoughness": {
        "baseColorFactor": [
          1.0,
          0.81,
          0.55,
          1.0
        ],
        "metallicFactor": 0.5,
        "roughnessFactor": 0.5
      },
      "emissiveFactor": [
        0.0,
        0.0,
        0.0
      ],
      "alphaMode": "OPAQUE",
      "alphaCutoff": 0.5,
      "doubleSided": false,
      "name": "li1"
    },
    {
      "pbrMetallicRoughness": {
        "baseColorFactor": [
          0.2,
          0.2,
          0.2,
          1.0
        ],
        "metallicFactor": 0.5,
        "roughnessFactor": 0.5
      },
      "emissiveFactor": [
        0.0,
        0.0,
        0.0
      ],
      "alphaMode": "OPAQUE",
      "alphaCutoff": 0.5,
      "doubleSided": false,
      "name": "mcon"
    },
    {
      "pbrMetallicRoughness": {
        "baseColorFactor": [
          0.16,
          0.38,
          0.83,
          1.0
        ],
        "metallicFactor": 0.5,
        "roughnessFactor": 0.5
      },
      "emissiveFactor": [
        0.0,
        0.0,
        0.0
      ],
      "alphaMode": "OPAQUE",
      "alphaCutoff": 0.5,
      "doubleSided": false,
      "name": "met1"
    },
    {
      "pbrMetallicRoughness": {
        "baseColorFactor": [
          0.2,
          0.2,
          0.2,
          1.0
        ],
        "metallicFactor": 0.5,
        "roughnessFactor": 0.5
      },
      "emissiveFactor": [
        0.0,
        0.0,
        0.0
      ],
      "alphaMode": "OPAQUE",
      "alphaCutoff": 0.5,
      "doubleSided": false,
      "name": "via"
    },
    {
      "pbrMetallicRoughness": {
        "baseColorFactor": [
          0.65,
          0.75,
          0.9,
          1.0
        ],
        "metallicFactor": 0.5,
        "roughnessFactor": 0.5
      },
      "emissiveFactor": [
        0.0,
        0.0,
        0.0
      ],
      "alphaMode": "OPAQUE",
      "alphaCutoff": 0.5,
      "doubleSided": false,
      "name": "met2"
    },
    {
      "pbrMetallicRoughness": {
        "baseColorFactor": [
          0.2,
          0.2,
          0.2,
          1.0
        ],
        "metallicFactor": 0.5,
        "roughnessFactor": 0.5
      },
      "emissiveFactor": [
        0.0,
        0.0,
        0.0
      ],
      "alphaMode": "OPAQUE",
      "alphaCutoff": 0.5,
      "doubleSided": false,
      "name": "via2"
    },
    {
      "pbrMetallicRoughness": {
        "baseColorFactor": [
          0.2,
          0.62,
          0.86,
          1.0
        ],
        "metallicFactor": 0.5,
        "roughnessFactor": 0.5
      },
      "emissiveFactor": [
        0.0,
        0.0,
        0.0
      ],
      "alphaMode": "OPAQUE",
      "alphaCutoff": 0.5,
      "doubleSided": false,
      "name": "met3"
    },
    {
      "pbrMetallicRoughness": {
        "baseColorFactor": [
          0.2,
          0.2,
          0.2,
          1.0
        ],
        "metallicFactor": 0.5,
        "roughnessFactor": 0.5
      },
      "emissiveFactor": [
        0.0,
        0.0,
        0.0
      ],
      "alphaMode": "OPAQUE",
      "alphaCutoff": 0.5,
      "doubleSided": false,
      "name": "via3"
    },
    {
      "pbrMetallicRoughness": {
        "baseColorFactor": [
          0.15,
          0.11,
          0.38,
          1.0
        ],
        "metallicFactor": 0.5,
        "roughnessFactor": 0.5
      },
      "emissiveFactor": [
        0.0,
        0.0,
        0.0
      ],
      "alphaMode": "OPAQUE",
      "alphaCutoff": 0.5,
      "doubleSided": false,
      "name": "met4"
    },
    {
      "pbrMetallicRoughness": {
        "baseColorFactor": [
          0.2,
          0.2,
          0.2,
          1.0
        ],
        "metallicFactor": 0.5,
        "roughnessFactor": 0.5
      },
      "emissiveFactor": [
        0.0,
        0.0,
        0.0
      ],
      "alphaMode": "OPAQUE",
      "alphaCutoff": 0.5,
      "doubleSided": false,
      "name": "via4"
    },
    {
      "pbrMetallicRoughness": {
        "baseColorFactor": [
          0.4,
          0.4,
          0.4,
          1.0
        ],
        "metallicFactor": 0.5,
        "roughnessFactor": 0.5
      },
      "emissiveFactor": [
        0.0,
        0.0,
        0.0
      ],
      "alphaMode": "OPAQUE",
      "alphaCutoff": 0.5,
      "doubleSided": false,
      "name": "met5"
    }
  ],
  "meshes": [
    {
      "primitives": [
        {
          "attributes": {
            "POSITION": 1
          },
          "indices": 0,
          "mode": 4,
          "material": 7
        }
      ]
    },
    {
      "primitives": [
        {
          "attributes": {
            "POSITION": 3
          },
          "indices": 2,
          "mode": 4,
          "material": 5
        }
      ]
    },
    {
      "primitives": [
        {
          "attributes": {
            "POSITION": 5
          },
          "indices": 4,
          "mode": 4,
          "material": 4
        }
      ]
    },
    {
      "primitives": [
        {
          "attributes": {
            "POSITION": 7
          },
          "indices": 6,
          "mode": 4,
          "material": 3
        }
      ]
    },
    {
      "primitives": [
        {
          "attributes": {
            "POSITION": 9
          },
          "indices": 8,
          "mode": 4,
          "material": 2
        }
      ]
    },
    {
      "primitives": [
        {
          "attributes": {
            "POSITION": 11
          },
          "indices": 10,
          "mode": 4,
          "material": 6
        }
      ]
    },
    {
      "primitives": [
        {
          "attributes": {
            "POSITION": 13
          },
          "indices": 12,
          "mode": 4,
          "material": 1
        }
      ]
    }
  ],
  "nodes": [
    {
      "children": [
        1,
        2,
        3,
        4,
        5,
        6,
        7
      ],
      "name": "sky130_fd_sc_hd__einvn_8"
    },
    {
      "mesh": 6,
      "name": "sky130_fd_sc_hd__einvn_8_nwell"
    },
    {
      "mesh": 4,
      "name": "sky130_fd_sc_hd__einvn_8_diff"
    },
    {
      "mesh": 3,
      "name": "sky130_fd_sc_hd__einvn_8_poly"
    },
    {
      "mesh": 2,
      "name": "sky130_fd_sc_hd__einvn_8_licon"
    },
    {
      "mesh": 1,
      "name": "sky130_fd_sc_hd__einvn_8_li1"
    },
    {
      "mesh": 5,
      "name": "sky130_fd_sc_hd__einvn_8_mcon"
    },
    {
      "mesh": 0,
      "name": "sky130_fd_sc_hd__einvn_8_met1"
    }
  ],
  "scene": 0,
  "scenes": [
    {
      "nodes": [
        0
      ]
    }
  ]
}