{
  "accessors": [
    {
      "bufferView": 0,
      "byteOffset": 0,
      "componentType": 5125,
      "normalized": false,
      "count": 768,
      "type": "SCALAR",
      "max": [
        135
      ],
      "min": [
        0
      ]
    },
    {
      "bufferView": 1,
      "byteOffset": 0,
      "componentType": 5126,
      "normalized": false,
      "count": 136,
      "type": "VEC3",
      "max": [
        14.25999,
        2.95999,
        1.736
      ],
      "min": [
        1e-05,
        -0.23998999999999998,
        1.376
      ]
    },
    {
      "bufferView": 2,
      "byteOffset": 0,
      "componentType": 5125,
      "normalized": false,
      "count": 216,
      "type": "SCALAR",
      "max": [
        47
      ],
      "min": [
        0
      ]
    },
    {
      "bufferView": 3,
      "byteOffset": 0,
      "componentType": 5126,
      "normalized": false,
      "count": 48,
      "type": "VEC3",
      "max": [
        14.039990000000001,
        2.48499,
        0.02
      ],
      "min": [
        0.30501,
        0.23501000000000002,
        -0.12
      ]
    },
    {
      "bufferView": 4,
      "byteOffset": 0,
      "componentType": 5125,
      "normalized": false,
      "count": 2736,
      "type": "SCALAR",
      "max": [
        607
      ],
      "min": [
        0
      ]
    },
    {
      "bufferView": 5,
      "byteOffset": 0,
      "componentType": 5126,
      "normalized": false,
      "count": 608,
      "type": "VEC3",
      "max": [
        14.11599,
        2.80599,
        1.376
      ],
      "min": [
        0.14401,
        -0.08599,
        1.011
      ]
    },
    {
      "bufferView": 6,
      "byteOffset": 0,
      "componentType": 5125,
      "normalized": false,
      "count": 4788,
      "type": "SCALAR",
      "max": [
        1063
      ],
      "min": [
        0
      ]
    },
    {
      "bufferView": 7,
      "byteOffset": 0,
      "componentType": 5126,
      "normalized": false,
      "count": 1064,
      "type": "VEC3",
      "max": [
        14.00099,
        2.44599,
        0.936
      ],
      "min": [
        0.36401,
        0.29401,
        -0.0001
      ]
    },
    {
      "bufferView": 8,
      "byteOffset": 0,
      "componentType": 5125,
      "normalized": false,
      "count": 2628,
      "type": "SCALAR",
      "max": [
        447
      ],
      "min": [
        0
      ]
    },
    {
      "bufferView": 9,
      "byteOffset": 0,
      "componentType": 5126,
      "normalized": false,
      "count": 448,
      "type": "VEC3",
      "max": [
        13.77499,
        2.61499,
        0.18
      ],
      "min": [
        0.28501000000000004,
        0.10500999999999999,
        0.0
      ]
    },
    {
      "bufferView": 10,
      "byteOffset": 0,
      "componentType": 5125,
      "normalized": false,
      "count": 3180,
      "type": "SCALAR",
      "max": [
        571
      ],
      "min": [
        0
      ]
    },
    {
      "bufferView": 11,
      "byteOffset": 0,
      "componentType": 5126,
      "normalized": false,
      "count": 572,
      "type": "VEC3",
      "max": [
        14.25999,
        2.80499,
        1.136
      ],
      "min": [
        1e-05,
        -0.08499000000000001,
        0.936
      ]
    },
    {
      "bufferView": 12,
      "byteOffset": 0,
      "componentType": 5125,
      "normalized": false,
      "count": 36,
      "type": "SCALAR",
      "max": [
        7
      ],
      "min": [
        0
      ]
    },
    {
      "bufferView": 13,
      "byteOffset": 0,
      "componentType": 5126,
      "normalized": false,
      "count": 8,
      "type": "VEC3",
      "max": [
        14.449990000000001,
        2.90999,
        0.01
      ],
      "min": [
        -0.18999,
        1.30501,
        -0.5
      ]
    }
  ],
  "asset": {
    "generator": "pygltflib@v1.16.1",
    "version": "2.0"
  },
  "bufferViews": [
    {
      "buffer": 0,
      "byteOffset": 0,
      "byteLength": 3072,
      "target": 34963
    },
    {
      "buffer": 0,
      "byteOffset": 3072,
      "byteLength": 1632,
      "target": 34962
    },
    {
      "buffer": 0,
      "byteOffset": 4704,
      "byteLength": 864,
      "target": 34963
    },
    {
      "buffer": 0,
      "byteOffset": 5568,
      "byteLength": 576,
      "target": 34962
    },
    {
      "buffer": 0,
      "byteOffset": 6144,
      "byteLength": 10944,
      "target": 34963
    },
    {
      "buffer": 0,
      "byteOffset": 17088,
      "byteLength": 7296,
      "target": 34962
    },
    {
      "buffer": 0,
      "byteOffset": 24384,
      "byteLength": 19152,
      "target": 34963
    },
    {
      "buffer": 0,
      "byteOffset": 43536,
      "byteLength": 12768,
      "target": 34962
    },
    {
      "buffer": 0,
      "byteOffset": 56304,
      "byteLength": 10512,
      "target": 34963
    },
    {
      "buffer": 0,
      "byteOffset": 66816,
      "byteLength": 5376,
      "target": 34962
    },
    {
      "buffer": 0,
      "byteOffset": 72192,
      "byteLength": 12720,
      "target": 34963
    },
    {
      "buffer": 0,
      "byteOffset": 84912,
      "byteLength": 6864,
      "target": 34962
    },
    {
      "buffer": 0,
      "byteOffset": 91776,
      "byteLength": 144,
      "target": 34963
    },
    {
      "buffer": 0,
      "byteOffset": 91920,
      "byteLength": 96,
      "target": 34962
    }
  ],
  "buffers": [
    {
      "uri": "data:application/octet-stream;base64,",
      "byteLength": 92016
    }
  ],
  "materials": [
    {
      "pbrMetallicRoughness": {
        "baseColorFactor": [
          0.2,
          0.2,
          0.2,
          1.0
        ],
        "metallicFactor": 0.5,
        "roughnessFactor": 0.5
      },
      "emissiveFactor": [
        0.0,
        0.0,
        0.0
      ],
      "alphaMode": "OPAQUE",
      "alphaCutoff": 0.5,
      "doubleSided": false,
      "name": "substrate"
    },
    {
      "pbrMetallicRoughness": {
        "baseColorFactor": [
          0.4,
          0.4,
          0.4,
          1.0
        ],
        "metallicFactor": 0.5,
        "roughnessFactor": 0.5
      },
      "emissiveFactor": [
        0.0,
        0.0,
        0.0
      ],
      "alphaMode": "OPAQUE",
      "alphaCutoff": 0.5,
      "doubleSided": false,
      "name": "nwell"
    },
    {
      "pbrMetallicRoughness": {
        "baseColorFactor": [
          0.9,
          0.9,
          0.9,
          1.0
        ],
        "metallicFactor": 0.5,
        "roughnessFactor": 0.5
      },
      "emissiveFactor": [
        0.0,
        0.0,
        0.0
      ],
      "alphaMode": "OPAQUE",
      "alphaCutoff": 0.5,
      "doubleSided": false,
      "name": "diff"
    },
    {
      "pbrMetallicRoughness": {
        "baseColorFactor": [
          0.75,
          0.35,
          0.46,
          1.0
        ],
        "metallicFactor": 0.5,
        "roughnessFactor": 0.5
      },
      "emissiveFactor": [
        0.0,
        0.0,
        0.0
      ],
      "alphaMode": "OPAQUE",
      "alphaCutoff": 0.5,
      "doubleSided": false,
      "name": "poly"
    },
    {
      "pbrMetallicRoughness": {
        "baseColorFactor": [
          0.2,
          0.2,
          0.2,
          1.0
        ],
        "metallicFactor": 0.5,
        "roughnessFactor": 0.5
      },
      "emissiveFactor": [
        0.0,
        0.0,
        0.0
      ],
      "alphaMode": "OPAQUE",
      "alphaCutoff": 0.5,
      "doubleSided": false,
      "name": "licon"
    },
    {
      "pbrMetallicRoughness": {
        "baseColorFactor": [
          1.0,
          0.81,
          0.55,
          1.0
        ],
        "metallicFactor": 0.5,
        "roughnessFactor": 0.5
      },
      "emissiveFactor": [
        0.0,
        0.0,
        0.0
      ],
      "alphaMode": "OPAQUE",
      "alphaCutoff": 0.5,
      "doubleSided": false,
      "name": "li1"
    },
    {
      "pbrMetallicRoughness": {
        "baseColorFactor": [
          0.2,
          0.2,
          0.2,
          1.0
        ],
        "metallicFactor": 0.5,
        "roughnessFactor": 0.5
      },
      "emissiveFactor": [
        0.0,
        0.0,
        0.0
      ],
      "alphaMode": "OPAQUE",
      "alphaCutoff": 0.5,
      "doubleSided": false,
      "name": "mcon"
    },
    {
      "pbrMetallicRoughness": {
        "baseColorFactor": [
          0.16,
          0.38,
          0.83,
          1.0
        ],
        "metallicFactor": 0.5,
        "roughnessFactor": 0.5
      },
      "emissiveFactor": [
        0.0,
        0.0,
        0.0
      ],
      "alphaMode": "OPAQUE",
      "alphaCutoff": 0.5,
      "doubleSided": false,
      "name": "met1"
    },
    {
      "pbrMetallicRoughness": {
        "baseColorFactor": [
          0.2,
          0.2,
          0.2,
          1.0
        ],
        "metallicFactor": 0.5,
        "roughnessFactor": 0.5
      },
      "emissiveFactor": [
        0.0,
        0.0,
        0.0
      ],
      "alphaMode": "OPAQUE",
      "alphaCutoff": 0.5,
      "doubleSided": false,
      "name": "via"
    },
    {
      "pbrMetallicRoughness": {
        "baseColorFactor": [
          0.65,
          0.75,
          0.9,
          1.0
        ],
        "metallicFactor": 0.5,
        "roughnessFactor": 0.5
      },
      "emissiveFactor": [
        0.0,
        0.0,
        0.0
      ],
      "alphaMode": "OPAQUE",
      "alphaCutoff": 0.5,
      "doubleSided": false,
      "name": "met2"
    },
    {
      "pbrMetallicRoughness": {
        "baseColorFactor": [
          0.2,
          0.2,
          0.2,
          1.0
        ],
        "metallicFactor": 0.5,
        "roughnessFactor": 0.5
      },
      "emissiveFactor": [
        0.0,
        0.0,
        0.0
      ],
      "alphaMode": "OPAQUE",
      "alphaCutoff": 0.5,
      "doubleSided": false,
      "name": "via2"
    },
    {
      "pbrMetallicRoughness": {
        "baseColorFactor": [
          0.2,
          0.62,
          0.86,
          1.0
        ],
        "metallicFactor": 0.5,
        "roughnessFactor": 0.5
      },
      "emissiveFactor": [
        0.0,
        0.0,
        0.0
      ],
      "alphaMode": "OPAQUE",
      "alphaCutoff": 0.5,
      "doubleSided": false,
      "name": "met3"
    },
    {
      "pbrMetallicRoughness": {
        "baseColorFactor": [
          0.2,
          0.2,
          0.2,
          1.0
        ],
        "metallicFactor": 0.5,
        "roughnessFactor": 0.5
      },
      "emissiveFactor": [
        0.0,
        0.0,
        0.0
      ],
      "alphaMode": "OPAQUE",
      "alphaCutoff": 0.5,
      "doubleSided": false,
      "name": "via3"
    },
    {
      "pbrMetallicRoughness": {
        "baseColorFactor": [
          0.15,
          0.11,
          0.38,
          1.0
        ],
        "metallicFactor": 0.5,
        "roughnessFactor": 0.5
      },
      "emissiveFactor": [
        0.0,
        0.0,
        0.0
      ],
      "alphaMode": "OPAQUE",
      "alphaCutoff": 0.5,
      "doubleSided": false,
      "name": "met4"
    },
    {
      "pbrMetallicRoughness": {
        "baseColorFactor": [
          0.2,
          0.2,
          0.2,
          1.0
        ],
        "metallicFactor": 0.5,
        "roughnessFactor": 0.5
      },
      "emissiveFactor": [
        0.0,
        0.0,
        0.0
      ],
      "alphaMode": "OPAQUE",
      "alphaCutoff": 0.5,
      "doubleSided": false,
      "name": "via4"
    },
    {
      "pbrMetallicRoughness": {
        "baseColorFactor": [
          0.4,
          0.4,
          0.4,
          1.0
        ],
        "metallicFactor": 0.5,
        "roughnessFactor": 0.5
      },
      "emissiveFactor": [
        0.0,
        0.0,
        0.0
      ],
      "alphaMode": "OPAQUE",
      "alphaCutoff": 0.5,
      "doubleSided": false,
      "name": "met5"
    }
  ],
  "meshes": [
    {
      "primitives": [
        {
          "attributes": {
            "POSITION": 1
          },
          "indices": 0,
          "mode": 4,
          "material": 7
        }
      ]
    },
    {
      "primitives": [
        {
          "attributes": {
            "POSITION": 3
          },
          "indices": 2,
          "mode": 4,
          "material": 2
        }
      ]
    },
    {
      "primitives": [
        {
          "attributes": {
            "POSITION": 5
          },
          "indices": 4,
          "mode": 4,
          "material": 6
        }
      ]
    },
    {
      "primitives": [
        {
          "attributes": {
            "POSITION": 7
          },
          "indices": 6,
          "mode": 4,
          "material": 4
        }
      ]
    },
    {
      "primitives": [
        {
          "attributes": {
            "POSITION": 9
          },
          "indices": 8,
          "mode": 4,
          "material": 3
        }
      ]
    },
    {
      "primitives": [
        {
          "attributes": {
            "POSITION": 11
          },
          "indices": 10,
          "mode": 4,
          "material": 5
        }
      ]
    },
    {
      "primitives": [
        {
          "attributes": {
            "POSITION": 13
          },
          "indices": 12,
          "mode": 4,
          "material": 1
        }
      ]
    }
  ],
  "nodes": [
    {
      "children": [
        1,
        2,
        3,
        4,
        5,
        6,
        7
      ],
      "name": "sky130_fd_sc_hd__lpflow_isobufsrckapwr_16"
    },
    {
      "mesh": 6,
      "name": "sky130_fd_sc_hd__lpflow_isobufsrckapwr_16_nwell"
    },
    {
      "mesh": 1,
      "name": "sky130_fd_sc_hd__lpflow_isobufsrckapwr_16_diff"
    },
    {
      "mesh": 4,
      "name": "sky130_fd_sc_hd__lpflow_isobufsrckapwr_16_poly"
    },
    {
      "mesh": 3,
      "name": "sky130_fd_sc_hd__lpflow_isobufsrckapwr_16_licon"
    },
    {
      "mesh": 5,
      "name": "sky130_fd_sc_hd__lpflow_isobufsrckapwr_16_li1"
    },
    {
      "mesh": 2,
      "name": "sky130_fd_sc_hd__lpflow_isobufsrckapwr_16_mcon"
    },
    {
      "mesh": 0,
      "name": "sky130_fd_sc_hd__lpflow_isobufsrckapwr_16_met1"
    }
  ],
  "scene": 0,
  "scenes": [
    {
      "nodes": [
        0
      ]
    }
  ]
}